ffmpeg started on 2016-12-12 at 03:47:46
Report written to "Output/theora/results/ffmpeg/sintel3500k.log"
Command line:
Tools/ffmpeg/ffmpeg -benchmark -y -i Input/y4m/sintel.y4m -c:v libtheora -b:v 3500k -an Output/theora/encoded/sintel3500k.mkv
ffmpeg version N-82227-gdb23fde Copyright (c) 2000-2016 the FFmpeg developers
  built with gcc 5.4.0 (Ubuntu 5.4.0-6ubuntu1~16.04.2) 20160609
  configuration: --prefix=/home/jaroslav/ffmpeg_build --pkg-config-flags=--static --extra-cflags=-I/home/jaroslav/ffmpeg_build/include --extra-ldflags=-L/home/jaroslav/ffmpeg_build/lib --bindir=/home/jaroslav/bin --enable-gpl --enable-libass --enable-libfdk-aac --enable-libfreetype --enable-libmp3lame --enable-libopus --enable-libtheora --enable-libvorbis --enable-libvpx --enable-libx264 --enable-libx265 --enable-nvenc --enable-libmfx --enable-libxvid --enable-libgsm --enable-libopencore-amrnb --enable-version3 --enable-nonfree
  libavutil      55. 35.100 / 55. 35.100
  libavcodec     57. 66.101 / 57. 66.101
  libavformat    57. 57.100 / 57. 57.100
  libavdevice    57.  2.100 / 57.  2.100
  libavfilter     6. 66.100 /  6. 66.100
  libswscale      4.  3.100 /  4.  3.100
  libswresample   2.  4.100 /  2.  4.100
  libpostproc    54.  2.100 / 54.  2.100
Input #0, yuv4mpegpipe, from 'Input/y4m/sintel.y4m':
  Duration: 00:00:20.83, start: 0.000000, bitrate: 2057307 kb/s
    Stream #0:0: Video: rawvideo (I420 / 0x30323449), yuv420p(progressive), 4096x1744, SAR 1:1 DAR 256:109, 24 fps, 24 tbr, 24 tbn, 24 tbc
Output #0, matroska, to 'Output/theora/encoded/sintel3500k.mkv':
  Metadata:
    encoder         : Lavf57.57.100
    Stream #0:0: Video: theora (libtheora) (theo / 0x6F656874), yuv420p, 4096x1744 [SAR 1:1 DAR 256:109], q=2-31, 3500 kb/s, 24 fps, 1k tbn, 24 tbc
    Metadata:
      encoder         : Lavc57.66.101 libtheora
Stream mapping:
  Stream #0:0 -> #0:0 (rawvideo (native) -> theora (libtheora))
Press [q] to stop, [?] for help
frame=    3 fps=0.0 q=-0.0 size=       4kB time=00:00:00.08 bitrate= 380.5kbits/s speed=0.126x    frame=    5 fps=4.0 q=-0.0 size=       4kB time=00:00:00.16 bitrate= 190.2kbits/s speed=0.134x    frame=    7 fps=3.8 q=-0.0 size=       4kB time=00:00:00.25 bitrate= 127.3kbits/s speed=0.135x    frame=    9 fps=3.7 q=-0.0 size=       4kB time=00:00:00.33 bitrate=  95.7kbits/s speed=0.136x    frame=   11 fps=3.6 q=-0.0 size=       4kB time=00:00:00.41 bitrate=  76.5kbits/s speed=0.136x    frame=   13 fps=3.5 q=-0.0 size=     388kB time=00:00:00.50 bitrate=6347.4kbits/s speed=0.136x    frame=   16 fps=3.6 q=-0.0 size=     388kB time=00:00:00.62 bitrate=5079.9kbits/s speed=0.141x    frame=   18 fps=2.1 q=-0.0 size=     388kB time=00:00:00.70 bitrate=4485.2kbits/s speed=0.0833x    frame=   19 fps=1.5 q=-0.0 size=     388kB time=00:00:00.75 bitrate=4234.4kbits/s speed=0.0574x    frame=   20 fps=1.4 q=-0.0 size=     388kB time=00:00:00.79 bitrate=4010.1kbits/s speed=0.0567x    frame=   22 fps=1.5 q=-0.0 size=     388kB time=00:00:00.87 bitrate=3630.2kbits/s speed=0.06x    frame=   24 fps=1.6 q=-0.0 size=     388kB time=00:00:00.95 bitrate=3316.0kbits/s speed=0.063x    frame=   27 fps=1.7 q=-0.0 size=     861kB time=00:00:01.08 bitrate=6509.2kbits/s speed=0.0679x    frame=   29 fps=1.7 q=-0.0 size=     861kB time=00:00:01.16 bitrate=6041.0kbits/s speed=0.0704x    frame=   31 fps=1.8 q=-0.0 size=     861kB time=00:00:01.25 bitrate=5640.2kbits/s speed=0.0727x    frame=   33 fps=1.9 q=-0.0 size=     861kB time=00:00:01.33 bitrate=5289.3kbits/s speed=0.0749x    frame=   35 fps=1.9 q=-0.0 size=     861kB time=00:00:01.41 bitrate=4976.0kbits/s speed=0.077x    frame=   37 fps=1.9 q=-0.0 size=    1251kB time=00:00:01.50 bitrate=6827.0kbits/s speed=0.0788x    frame=   40 fps=2.0 q=-0.0 size=    1251kB time=00:00:01.62 bitrate=6302.2kbits/s speed=0.0822x    frame=   42 fps=2.1 q=-0.0 size=    1251kB time=00:00:01.70 bitrate=5996.1kbits/s speed=0.0838x    frame=   44 fps=2.1 q=-0.0 size=    1251kB time=00:00:01.79 bitrate=5715.2kbits/s speed=0.0854x    frame=   46 fps=2.1 q=-0.0 size=    1251kB time=00:00:01.87 bitrate=5462.3kbits/s speed=0.0868x    frame=   48 fps=2.2 q=-0.0 size=    1251kB time=00:00:01.95 bitrate=5230.9kbits/s speed=0.0882x    frame=   51 fps=2.2 q=-0.0 size=    1611kB time=00:00:02.08 bitrate=6331.1kbits/s speed=0.0908x    frame=   53 fps=2.2 q=-0.0 size=    1611kB time=00:00:02.16 bitrate=6085.8kbits/s speed=0.092x    frame=   55 fps=2.3 q=-0.0 size=    1611kB time=00:00:02.25 bitrate=5861.4kbits/s speed=0.0931x    frame=   57 fps=2.3 q=-0.0 size=    1817kB time=00:00:02.33 bitrate=6378.6kbits/s speed=0.0938x    frame=   59 fps=2.3 q=-0.0 size=    1861kB time=00:00:02.41 bitrate=6304.3kbits/s speed=0.0946x    frame=   61 fps=2.3 q=-0.0 size=    1903kB time=00:00:02.50 bitrate=6233.6kbits/s speed=0.0953x    frame=   63 fps=2.3 q=-0.0 size=    1903kB time=00:00:02.58 bitrate=6033.4kbits/s speed=0.0956x    frame=   65 fps=2.4 q=-0.0 size=    1903kB time=00:00:02.66 bitrate=5843.4kbits/s speed=0.0966x    frame=   67 fps=2.4 q=-0.0 size=    1987kB time=00:00:02.75 bitrate=5917.0kbits/s speed=0.0971x    frame=   69 fps=2.4 q=-0.0 size=    2043kB time=00:00:02.83 bitrate=5906.7kbits/s speed=0.0977x    frame=   71 fps=2.4 q=-0.0 size=    2099kB time=00:00:02.91 bitrate=5893.1kbits/s speed=0.0984x    frame=   73 fps=2.4 q=-0.0 size=    2099kB time=00:00:03.00 bitrate=5730.1kbits/s speed=0.0986x    frame=   75 fps=2.4 q=-0.0 size=    2155kB time=00:00:03.08 bitrate=5723.3kbits/s speed=0.0994x    frame=   77 fps=2.4 q=-0.0 size=    2181kB time=00:00:03.16 bitrate=5639.1kbits/s speed=0.0997x    frame=   79 fps=2.4 q=-0.0 size=    2230kB time=00:00:03.25 bitrate=5618.8kbits/s speed= 0.1x    frame=   81 fps=2.4 q=-0.0 size=    2257kB time=00:00:03.33 bitrate=5546.2kbits/s speed= 0.1x    frame=   83 fps=2.4 q=-0.0 size=    2314kB time=00:00:03.41 bitrate=5544.9kbits/s speed=0.101x    frame=   85 fps=2.5 q=-0.0 size=    2344kB time=00:00:03.50 bitrate=5484.6kbits/s speed=0.101x    frame=   87 fps=2.5 q=-0.0 size=    2370kB time=00:00:03.58 bitrate=5417.5kbits/s speed=0.101x    frame=   89 fps=2.5 q=-0.0 size=    2399kB time=00:00:03.66 bitrate=5358.2kbits/s speed=0.101x    frame=   91 fps=2.5 q=-0.0 size=    2430kB time=00:00:03.75 bitrate=5306.2kbits/s speed=0.102x    frame=   93 fps=2.5 q=-0.0 size=    2430kB time=00:00:03.83 bitrate=5191.3kbits/s speed=0.102x    frame=   95 fps=2.5 q=-0.0 size=    2495kB time=00:00:03.91 bitrate=5215.8kbits/s speed=0.102x    frame=   97 fps=2.5 q=-0.0 size=    2495kB time=00:00:04.00 bitrate=5107.6kbits/s speed=0.103x    frame=   99 fps=2.5 q=-0.0 size=    2560kB time=00:00:04.08 bitrate=5134.9kbits/s speed=0.103x    frame=  101 fps=2.5 q=-0.0 size=    2560kB time=00:00:04.16 bitrate=5031.4kbits/s speed=0.104x    frame=  103 fps=2.5 q=-0.0 size=    2627kB time=00:00:04.25 bitrate=5061.7kbits/s speed=0.104x    frame=  105 fps=2.5 q=-0.0 size=    2627kB time=00:00:04.33 bitrate=4964.7kbits/s speed=0.105x    frame=  107 fps=2.5 q=-0.0 size=    2723kB time=00:00:04.41 bitrate=5048.2kbits/s speed=0.105x    frame=  109 fps=2.6 q=-0.0 size=    2723kB time=00:00:04.50 bitrate=4955.1kbits/s speed=0.105x    frame=  111 fps=2.6 q=-0.0 size=    2723kB time=00:00:04.58 bitrate=4865.4kbits/s speed=0.106x    frame=  113 fps=2.6 q=-0.0 size=    2816kB time=00:00:04.66 bitrate=4941.6kbits/s speed=0.106x    frame=  115 fps=2.6 q=-0.0 size=    2816kB time=00:00:04.75 bitrate=4855.3kbits/s speed=0.107x    frame=  117 fps=2.6 q=-0.0 size=    2901kB time=00:00:04.83 bitrate=4915.6kbits/s speed=0.107x    frame=  119 fps=2.6 q=-0.0 size=    2901kB time=00:00:04.91 bitrate=4831.6kbits/s speed=0.107x    frame=  121 fps=2.6 q=-0.0 size=    2901kB time=00:00:05.00 bitrate=4751.4kbits/s speed=0.107x    frame=  123 fps=2.6 q=-0.0 size=    2901kB time=00:00:05.08 bitrate=4673.9kbits/s speed=0.108x    frame=  125 fps=2.6 q=-0.0 size=    2901kB time=00:00:05.16 bitrate=4597.9kbits/s speed=0.108x    frame=  127 fps=2.6 q=-0.0 size=    3064kB time=00:00:05.25 bitrate=4779.5kbits/s speed=0.108x    frame=  129 fps=2.6 q=-0.0 size=    3109kB time=00:00:05.33 bitrate=4775.4kbits/s speed=0.108x    frame=  131 fps=2.6 q=-0.0 size=    3156kB time=00:00:05.41 bitrate=4772.4kbits/s speed=0.108x    frame=  133 fps=2.6 q=-0.0 size=    3156kB time=00:00:05.50 bitrate=4700.4kbits/s speed=0.108x    frame=  135 fps=2.6 q=-0.0 size=    3212kB time=00:00:05.58 bitrate=4712.5kbits/s speed=0.108x    frame=  137 fps=2.6 q=-0.0 size=    3212kB time=00:00:05.66 bitrate=4642.6kbits/s speed=0.108x    frame=  139 fps=2.6 q=-0.0 size=    3267kB time=00:00:05.75 bitrate=4654.2kbits/s speed=0.109x    frame=  141 fps=2.6 q=-0.0 size=    3267kB time=00:00:05.83 bitrate=4588.0kbits/s speed=0.109x    frame=  143 fps=2.6 q=-0.0 size=    3322kB time=00:00:05.91 bitrate=4599.1kbits/s speed=0.109x    frame=  145 fps=2.6 q=-0.0 size=    3322kB time=00:00:06.00 bitrate=4535.5kbits/s speed=0.109x    frame=  147 fps=2.6 q=-0.0 size=    3322kB time=00:00:06.08 bitrate=4473.6kbits/s speed=0.109x    frame=  149 fps=2.7 q=-0.0 size=    3322kB time=00:00:06.16 bitrate=4412.7kbits/s speed=0.11x    frame=  151 fps=2.7 q=-0.0 size=    3322kB time=00:00:06.25 bitrate=4354.1kbits/s speed=0.11x    frame=  153 fps=2.7 q=-0.0 size=    3322kB time=00:00:06.33 bitrate=4297.0kbits/s speed=0.11x    frame=  156 fps=2.7 q=-0.0 size=    3563kB time=00:00:06.45 bitrate=4519.5kbits/s speed=0.111x    frame=  158 fps=2.7 q=-0.0 size=    3617kB time=00:00:06.54 bitrate=4528.5kbits/s speed=0.111x    frame=  160 fps=2.7 q=-0.0 size=    3617kB time=00:00:06.62 bitrate=4471.8kbits/s speed=0.111x    frame=  162 fps=2.7 q=-0.0 size=    3708kB time=00:00:06.70 bitrate=4528.2kbits/s speed=0.112x    frame=  164 fps=2.7 q=-0.0 size=    3741kB time=00:00:06.79 bitrate=4511.8kbits/s speed=0.112x    frame=  166 fps=2.7 q=-0.0 size=    3776kB time=00:00:06.87 bitrate=4498.3kbits/s speed=0.112x    frame=  168 fps=2.7 q=-0.0 size=    3811kB time=00:00:06.95 bitrate=4485.9kbits/s speed=0.112x    frame=  170 fps=2.7 q=-0.0 size=    3845kB time=00:00:07.04 bitrate=4472.7kbits/s speed=0.112x    frame=  172 fps=2.7 q=-0.0 size=    3881kB time=00:00:07.12 bitrate=4461.7kbits/s speed=0.112x    frame=  174 fps=2.7 q=-0.0 size=    3915kB time=00:00:07.20 bitrate=4448.9kbits/s speed=0.112x    frame=  176 fps=2.7 q=-0.0 size=    3950kB time=00:00:07.29 bitrate=4436.9kbits/s speed=0.112x    frame=  178 fps=2.7 q=-0.0 size=    3984kB time=00:00:07.37 bitrate=4424.8kbits/s speed=0.112x    frame=  180 fps=2.7 q=-0.0 size=    3984kB time=00:00:07.45 bitrate=4375.6kbits/s speed=0.112x    frame=  182 fps=2.7 q=-0.0 size=    4047kB time=00:00:07.54 bitrate=4395.3kbits/s speed=0.112x    frame=  184 fps=2.7 q=-0.0 size=    4080kB time=00:00:07.62 bitrate=4383.3kbits/s speed=0.112x    frame=  186 fps=2.7 q=-0.0 size=    4080kB time=00:00:07.70 bitrate=4336.1kbits/s speed=0.113x    frame=  188 fps=2.7 q=-0.0 size=    4080kB time=00:00:07.79 bitrate=4289.4kbits/s speed=0.113x    frame=  190 fps=2.7 q=-0.0 size=    4080kB time=00:00:07.87 bitrate=4244.2kbits/s speed=0.113x    frame=  192 fps=2.7 q=-0.0 size=    4080kB time=00:00:07.95 bitrate=4199.9kbits/s speed=0.113x    frame=  194 fps=2.7 q=-0.0 size=    4247kB time=00:00:08.04 bitrate=4325.8kbits/s speed=0.113x    frame=  196 fps=2.7 q=-0.0 size=    4308kB time=00:00:08.12 bitrate=4343.3kbits/s speed=0.114x    frame=  198 fps=2.7 q=-0.0 size=    4340kB time=00:00:08.20 bitrate=4330.7kbits/s speed=0.114x    frame=  200 fps=2.7 q=-0.0 size=    4372kB time=00:00:08.29 bitrate=4319.0kbits/s speed=0.114x    frame=  202 fps=2.7 q=-0.0 size=    4408kB time=00:00:08.37 bitrate=4310.9kbits/s speed=0.114x    frame=  204 fps=2.7 q=-0.0 size=    4446kB time=00:00:08.45 bitrate=4305.6kbits/s speed=0.114x    frame=  206 fps=2.7 q=-0.0 size=    4484kB time=00:00:08.54 bitrate=4300.0kbits/s speed=0.114x    frame=  208 fps=2.7 q=-0.0 size=    4523kB time=00:00:08.62 bitrate=4295.0kbits/s speed=0.114x    frame=  210 fps=2.7 q=-0.0 size=    4563kB time=00:00:08.70 bitrate=4291.8kbits/s speed=0.114x    frame=  212 fps=2.7 q=-0.0 size=    4563kB time=00:00:08.79 bitrate=4250.8kbits/s speed=0.114x    frame=  214 fps=2.7 q=-0.0 size=    4563kB time=00:00:08.87 bitrate=4211.1kbits/s speed=0.114x    frame=  216 fps=2.8 q=-0.0 size=    4563kB time=00:00:08.95 bitrate=4172.1kbits/s speed=0.114x    frame=  218 fps=2.8 q=-0.0 size=    4563kB time=00:00:09.04 bitrate=4133.3kbits/s speed=0.114x    frame=  220 fps=2.8 q=-0.0 size=    4563kB time=00:00:09.12 bitrate=4095.7kbits/s speed=0.114x    frame=  222 fps=2.8 q=-0.0 size=    4563kB time=00:00:09.20 bitrate=4058.8kbits/s speed=0.115x    frame=  225 fps=2.8 q=-0.0 size=    4808kB time=00:00:09.33 bitrate=4220.1kbits/s speed=0.115x    frame=  227 fps=2.8 q=-0.0 size=    4808kB time=00:00:09.41 bitrate=4182.4kbits/s speed=0.115x    frame=  229 fps=2.8 q=-0.0 size=    4808kB time=00:00:09.50 bitrate=4145.9kbits/s speed=0.115x    frame=  231 fps=2.8 q=-0.0 size=    4808kB time=00:00:09.58 bitrate=4110.0kbits/s speed=0.116x    frame=  233 fps=2.8 q=-0.0 size=    4808kB time=00:00:09.66 bitrate=4074.3kbits/s speed=0.116x    frame=  235 fps=2.8 q=-0.0 size=    4991kB time=00:00:09.75 bitrate=4193.2kbits/s speed=0.116x    frame=  238 fps=2.8 q=-0.0 size=    4991kB time=00:00:09.87 bitrate=4140.1kbits/s speed=0.116x    frame=  240 fps=2.8 q=-0.0 size=    4991kB time=00:00:09.95 bitrate=4105.6kbits/s speed=0.117x    frame=  242 fps=2.8 q=-0.0 size=    4991kB time=00:00:10.04 bitrate=4071.3kbits/s speed=0.117x    frame=  244 fps=2.8 q=-0.0 size=    4991kB time=00:00:10.12 bitrate=4037.9kbits/s speed=0.117x    frame=  246 fps=2.8 q=-0.0 size=    5185kB time=00:00:10.20 bitrate=4160.7kbits/s speed=0.117x    frame=  248 fps=2.8 q=-0.0 size=    5185kB time=00:00:10.29 bitrate=4126.7kbits/s speed=0.117x    frame=  250 fps=2.8 q=-0.0 size=    5185kB time=00:00:10.37 bitrate=4093.7kbits/s speed=0.117x    frame=  252 fps=2.8 q=-0.0 size=    5185kB time=00:00:10.45 bitrate=4061.2kbits/s speed=0.117x    frame=  254 fps=2.8 q=-0.0 size=    5185kB time=00:00:10.54 bitrate=4028.9kbits/s speed=0.117x    frame=  256 fps=2.8 q=-0.0 size=    5185kB time=00:00:10.62 bitrate=3997.4kbits/s speed=0.117x    frame=  258 fps=2.8 q=-0.0 size=    5434kB time=00:00:10.70 bitrate=4156.5kbits/s speed=0.118x    frame=  261 fps=2.8 q=-0.0 size=    5434kB time=00:00:10.83 bitrate=4108.6kbits/s speed=0.118x    frame=  263 fps=2.8 q=-0.0 size=    5434kB time=00:00:10.91 bitrate=4077.0kbits/s speed=0.118x    frame=  265 fps=2.8 q=-0.0 size=    5434kB time=00:00:11.00 bitrate=4046.2kbits/s speed=0.118x    frame=  267 fps=2.9 q=-0.0 size=    5434kB time=00:00:11.08 bitrate=4015.9kbits/s speed=0.118x    frame=  269 fps=2.9 q=-0.0 size=    5434kB time=00:00:11.16 bitrate=3985.7kbits/s speed=0.118x    frame=  272 fps=2.9 q=-0.0 size=    5630kB time=00:00:11.29 bitrate=4083.7kbits/s speed=0.119x    frame=  274 fps=2.9 q=-0.0 size=    5630kB time=00:00:11.37 bitrate=4053.9kbits/s speed=0.119x    frame=  276 fps=2.9 q=-0.0 size=    5630kB time=00:00:11.45 bitrate=4024.6kbits/s speed=0.119x    frame=  278 fps=2.9 q=-0.0 size=    5630kB time=00:00:11.54 bitrate=3995.3kbits/s speed=0.119x    frame=  280 fps=2.9 q=-0.0 size=    5630kB time=00:00:11.62 bitrate=3966.8kbits/s speed=0.12x    frame=  282 fps=2.9 q=-0.0 size=    5854kB time=00:00:11.70 bitrate=4095.9kbits/s speed=0.12x    frame=  285 fps=2.9 q=-0.0 size=    5854kB time=00:00:11.83 bitrate=4052.6kbits/s speed=0.12x    frame=  287 fps=2.9 q=-0.0 size=    5854kB time=00:00:11.91 bitrate=4024.1kbits/s speed=0.12x    frame=  289 fps=2.9 q=-0.0 size=    5854kB time=00:00:12.00 bitrate=3996.2kbits/s speed=0.12x    frame=  291 fps=2.9 q=-0.0 size=    5854kB time=00:00:12.08 bitrate=3968.8kbits/s speed=0.12x    frame=  293 fps=2.9 q=-0.0 size=    5854kB time=00:00:12.16 bitrate=3941.4kbits/s speed=0.121x    frame=  296 fps=2.9 q=-0.0 size=    6072kB time=00:00:12.29 bitrate=4046.5kbits/s speed=0.121x    frame=  298 fps=2.9 q=-0.0 size=    6072kB time=00:00:12.37 bitrate=4019.4kbits/s speed=0.121x    frame=  300 fps=2.9 q=-0.0 size=    6072kB time=00:00:12.45 bitrate=3992.6kbits/s speed=0.121x    frame=  302 fps=2.9 q=-0.0 size=    6072kB time=00:00:12.54 bitrate=3965.8kbits/s speed=0.121x    frame=  304 fps=2.9 q=-0.0 size=    6072kB time=00:00:12.62 bitrate=3939.8kbits/s speed=0.122x    frame=  306 fps=2.9 q=-0.0 size=    6268kB time=00:00:12.70 bitrate=4040.2kbits/s speed=0.122x    frame=  309 fps=2.9 q=-0.0 size=    6268kB time=00:00:12.83 bitrate=4000.8kbits/s speed=0.122x    frame=  311 fps=2.9 q=-0.0 size=    6268kB time=00:00:12.91 bitrate=3974.8kbits/s speed=0.122x    frame=  313 fps=2.9 q=-0.0 size=    6268kB time=00:00:13.00 bitrate=3949.4kbits/s speed=0.122x    frame=  315 fps=2.9 q=-0.0 size=    6268kB time=00:00:13.08 bitrate=3924.4kbits/s speed=0.122x    frame=  317 fps=3.0 q=-0.0 size=    6268kB time=00:00:13.16 bitrate=3899.3kbits/s speed=0.123x    frame=  320 fps=3.0 q=-0.0 size=    6478kB time=00:00:13.29 bitrate=3992.1kbits/s speed=0.123x    frame=  322 fps=3.0 q=-0.0 size=    6478kB time=00:00:13.37 bitrate=3967.3kbits/s speed=0.123x    frame=  324 fps=3.0 q=-0.0 size=    6478kB time=00:00:13.45 bitrate=3942.9kbits/s speed=0.123x    frame=  326 fps=3.0 q=-0.0 size=    6478kB time=00:00:13.54 bitrate=3918.4kbits/s speed=0.123x    frame=  328 fps=3.0 q=-0.0 size=    6478kB time=00:00:13.62 bitrate=3894.6kbits/s speed=0.123x    frame=  330 fps=3.0 q=-0.0 size=    6692kB time=00:00:13.70 bitrate=3998.8kbits/s speed=0.124x    frame=  333 fps=3.0 q=-0.0 size=    6692kB time=00:00:13.83 bitrate=3962.7kbits/s speed=0.124x    frame=  335 fps=3.0 q=-0.0 size=    6692kB time=00:00:13.91 bitrate=3938.8kbits/s speed=0.124x    frame=  337 fps=3.0 q=-0.0 size=    6692kB time=00:00:14.00 bitrate=3915.4kbits/s speed=0.124x    frame=  339 fps=3.0 q=-0.0 size=    6692kB time=00:00:14.08 bitrate=3892.3kbits/s speed=0.124x    frame=  341 fps=3.0 q=-0.0 size=    6692kB time=00:00:14.16 bitrate=3869.3kbits/s speed=0.124x    frame=  344 fps=3.0 q=-0.0 size=    6898kB time=00:00:14.29 bitrate=3953.6kbits/s speed=0.125x    frame=  346 fps=3.0 q=-0.0 size=    6898kB time=00:00:14.37 bitrate=3930.8kbits/s speed=0.125x    frame=  348 fps=3.0 q=-0.0 size=    6898kB time=00:00:14.45 bitrate=3908.3kbits/s speed=0.125x    frame=  350 fps=3.0 q=-0.0 size=    6898kB time=00:00:14.54 bitrate=3885.7kbits/s speed=0.125x    frame=  352 fps=3.0 q=-0.0 size=    6898kB time=00:00:14.62 bitrate=3863.6kbits/s speed=0.125x    frame=  354 fps=3.0 q=-0.0 size=    7077kB time=00:00:14.70 bitrate=3941.6kbits/s speed=0.125x    frame=  357 fps=3.0 q=-0.0 size=    7077kB time=00:00:14.83 bitrate=3908.4kbits/s speed=0.126x    frame=  359 fps=3.0 q=-0.0 size=    7077kB time=00:00:14.91 bitrate=3886.4kbits/s speed=0.126x    frame=  361 fps=3.0 q=-0.0 size=    7077kB time=00:00:15.00 bitrate=3864.9kbits/s speed=0.126x    frame=  363 fps=3.0 q=-0.0 size=    7233kB time=00:00:15.08 bitrate=3928.0kbits/s speed=0.126x    frame=  365 fps=3.0 q=-0.0 size=    7233kB time=00:00:15.16 bitrate=3906.3kbits/s speed=0.126x    frame=  367 fps=3.0 q=-0.0 size=    7233kB time=00:00:15.25 bitrate=3885.0kbits/s speed=0.126x    frame=  369 fps=3.0 q=-0.0 size=    7233kB time=00:00:15.33 bitrate=3864.0kbits/s speed=0.126x    frame=  371 fps=3.0 q=-0.0 size=    7233kB time=00:00:15.41 bitrate=3842.9kbits/s speed=0.126x    frame=  373 fps=3.0 q=-0.0 size=    7233kB time=00:00:15.50 bitrate=3822.4kbits/s speed=0.126x    frame=  375 fps=3.0 q=-0.0 size=    7432kB time=00:00:15.58 bitrate=3906.6kbits/s speed=0.126x    frame=  378 fps=3.0 q=-0.0 size=    7432kB time=00:00:15.70 bitrate=3875.5kbits/s speed=0.127x    frame=  380 fps=3.0 q=-0.0 size=    7432kB time=00:00:15.79 bitrate=3854.9kbits/s speed=0.127x    frame=  382 fps=3.1 q=-0.0 size=    7432kB time=00:00:15.87 bitrate=3834.7kbits/s speed=0.127x    frame=  384 fps=3.1 q=-0.0 size=    7432kB time=00:00:15.95 bitrate=3814.8kbits/s speed=0.127x    frame=  386 fps=3.1 q=-0.0 size=    7432kB time=00:00:16.04 bitrate=3794.8kbits/s speed=0.127x    frame=  389 fps=3.1 q=-0.0 size=    7612kB time=00:00:16.16 bitrate=3856.9kbits/s speed=0.127x    frame=  391 fps=3.1 q=-0.0 size=    7612kB time=00:00:16.25 bitrate=3837.2kbits/s speed=0.127x    frame=  393 fps=3.1 q=-0.0 size=    7612kB time=00:00:16.33 bitrate=3817.7kbits/s speed=0.127x    frame=  395 fps=3.1 q=-0.0 size=    7612kB time=00:00:16.41 bitrate=3798.2kbits/s speed=0.128x    frame=  397 fps=3.1 q=-0.0 size=    7612kB time=00:00:16.50 bitrate=3779.1kbits/s speed=0.128x    frame=  399 fps=3.1 q=-0.0 size=    7903kB time=00:00:16.58 bitrate=3903.8kbits/s speed=0.128x    frame=  402 fps=3.1 q=-0.0 size=    7903kB time=00:00:16.70 bitrate=3874.6kbits/s speed=0.128x    frame=  404 fps=3.1 q=-0.0 size=    7903kB time=00:00:16.79 bitrate=3855.3kbits/s speed=0.128x    frame=  406 fps=3.1 q=-0.0 size=    7903kB time=00:00:16.87 bitrate=3836.3kbits/s speed=0.128x    frame=  408 fps=3.1 q=-0.0 size=    7903kB time=00:00:16.95 bitrate=3817.5kbits/s speed=0.128x    frame=  410 fps=3.1 q=-0.0 size=    7903kB time=00:00:17.04 bitrate=3798.7kbits/s speed=0.128x    frame=  413 fps=3.1 q=-0.0 size=    8149kB time=00:00:17.16 bitrate=3888.2kbits/s speed=0.128x    frame=  415 fps=3.1 q=-0.0 size=    8149kB time=00:00:17.25 bitrate=3869.5kbits/s speed=0.128x    frame=  417 fps=3.1 q=-0.0 size=    8149kB time=00:00:17.33 bitrate=3851.0kbits/s speed=0.129x    frame=  419 fps=3.1 q=-0.0 size=    8277kB time=00:00:17.41 bitrate=3892.7kbits/s speed=0.129x    frame=  421 fps=3.1 q=-0.0 size=    8277kB time=00:00:17.50 bitrate=3874.2kbits/s speed=0.129x    frame=  423 fps=3.1 q=-0.0 size=    8277kB time=00:00:17.58 bitrate=3855.9kbits/s speed=0.129x    frame=  424 fps=3.1 q=-0.0 size=    8277kB time=00:00:17.62 bitrate=3846.8kbits/s speed=0.128x    frame=  426 fps=3.1 q=-0.0 size=    8277kB time=00:00:17.70 bitrate=3828.7kbits/s speed=0.128x    frame=  428 fps=3.1 q=-0.0 size=    8277kB time=00:00:17.79 bitrate=3810.7kbits/s speed=0.128x    frame=  430 fps=3.1 q=-0.0 size=    8277kB time=00:00:17.87 bitrate=3793.0kbits/s speed=0.128x    frame=  432 fps=3.1 q=-0.0 size=    8526kB time=00:00:17.95 bitrate=3889.3kbits/s speed=0.129x    frame=  435 fps=3.1 q=-0.0 size=    8526kB time=00:00:18.08 bitrate=3862.4kbits/s speed=0.129x    frame=  437 fps=3.1 q=-0.0 size=    8526kB time=00:00:18.16 bitrate=3844.6kbits/s speed=0.129x    frame=  439 fps=3.1 q=-0.0 size=    8526kB time=00:00:18.25 bitrate=3827.1kbits/s speed=0.129x    frame=  441 fps=3.1 q=-0.0 size=    8526kB time=00:00:18.33 bitrate=3809.7kbits/s speed=0.129x    frame=  443 fps=3.1 q=-0.0 size=    8526kB time=00:00:18.41 bitrate=3792.4kbits/s speed=0.129x    frame=  446 fps=3.1 q=-0.0 size=    8701kB time=00:00:18.54 bitrate=3843.9kbits/s speed=0.129x    frame=  448 fps=3.1 q=-0.0 size=    8701kB time=00:00:18.62 bitrate=3826.8kbits/s speed=0.129x    frame=  450 fps=3.1 q=-0.0 size=    8701kB time=00:00:18.70 bitrate=3809.8kbits/s speed=0.129x    frame=  452 fps=3.1 q=-0.0 size=    8701kB time=00:00:18.79 bitrate=3792.8kbits/s speed=0.13x    frame=  454 fps=3.1 q=-0.0 size=    8701kB time=00:00:18.87 bitrate=3776.1kbits/s speed=0.13x    frame=  456 fps=3.1 q=-0.0 size=    8930kB time=00:00:18.95 bitrate=3858.6kbits/s speed=0.13x    frame=  459 fps=3.1 q=-0.0 size=    8930kB time=00:00:19.08 bitrate=3833.4kbits/s speed=0.13x    frame=  461 fps=3.1 q=-0.0 size=    8930kB time=00:00:19.16 bitrate=3816.6kbits/s speed=0.13x    frame=  463 fps=3.1 q=-0.0 size=    8930kB time=00:00:19.25 bitrate=3800.1kbits/s speed=0.13x    frame=  465 fps=3.1 q=-0.0 size=    8930kB time=00:00:19.33 bitrate=3783.8kbits/s speed=0.13x    frame=  467 fps=3.1 q=-0.0 size=    8930kB time=00:00:19.41 bitrate=3767.4kbits/s speed=0.13x    frame=  470 fps=3.1 q=-0.0 size=    9153kB time=00:00:19.54 bitrate=3836.9kbits/s speed=0.13x    frame=  472 fps=3.1 q=-0.0 size=    9153kB time=00:00:19.62 bitrate=3820.7kbits/s speed=0.13x    frame=  474 fps=3.1 q=-0.0 size=    9153kB time=00:00:19.70 bitrate=3804.6kbits/s speed=0.13x    frame=  476 fps=3.1 q=-0.0 size=    9153kB time=00:00:19.79 bitrate=3788.5kbits/s speed=0.13x    frame=  478 fps=3.1 q=-0.0 size=    9153kB time=00:00:19.87 bitrate=3772.6kbits/s speed=0.13x    frame=  480 fps=3.1 q=-0.0 size=    9362kB time=00:00:19.95 bitrate=3842.6kbits/s speed=0.13x    frame=  483 fps=3.1 q=-0.0 size=    9362kB time=00:00:20.08 bitrate=3818.7kbits/s speed=0.131x    frame=  485 fps=3.1 q=-0.0 size=    9362kB time=00:00:20.16 bitrate=3802.8kbits/s speed=0.131x    frame=  487 fps=3.1 q=-0.0 size=    9362kB time=00:00:20.25 bitrate=3787.2kbits/s speed=0.131x    frame=  489 fps=3.1 q=-0.0 size=    9362kB time=00:00:20.33 bitrate=3771.8kbits/s speed=0.131x    frame=  491 fps=3.1 q=-0.0 size=    9362kB time=00:00:20.41 bitrate=3756.3kbits/s speed=0.131x    frame=  494 fps=3.1 q=-0.0 size=    9536kB time=00:00:20.54 bitrate=3802.9kbits/s speed=0.131x    frame=  496 fps=3.1 q=-0.0 size=    9536kB time=00:00:20.62 bitrate=3787.6kbits/s speed=0.131x    frame=  498 fps=3.1 q=-0.0 size=    9536kB time=00:00:20.70 bitrate=3772.4kbits/s speed=0.131x    frame=  500 fps=3.1 q=-0.0 size=    9536kB time=00:00:20.79 bitrate=3757.1kbits/s speed=0.131x    frame=  500 fps=3.1 q=-0.0 Lsize=    9686kB time=00:00:20.79 bitrate=3816.0kbits/s speed=0.131x    
video:9675kB audio:0kB subtitle:0kB other streams:0kB global headers:3kB muxing overhead: 0.114727%
bench: utime=139.732s
bench: maxrss=214940kB
